<svg xmlns="http://www.w3.org/2000/svg" width="32" height="32" fill="none" viewBox="0 0 32 32">
  <g clip-path="url(#a)">
    <g clip-path="url(#b)">
      <path fill="#D9D9D9" d="M16 0C3.2 0 0 3.2 0 16s3.2 16 16 16 16-3.2 16-16S28.8 0 16 0Z"/>
    </g>
    <path fill="#1E1E1E" fill-rule="evenodd" d="M16 0C3.2 0 0 3.2 0 16s3.2 16 16 16 16-3.2 16-16S28.8 0 16 0Zm.002 4.182c-.675-.016-1.28.338-1.261 1.229L3.02 14.93l.015.38v9.788l.627-.147 8.526-2 .297.968 1.626-.183-.187-1.193 3.79-.888.484.56 1.195.089-.051-1.03 6.668-1.566v.002c.075-.011.146-.029.216-.052l.003-.001 1.138-.267.395-.092v-.393l1.013-8.062c.486-.935-.355-2.54-2.117-2.194.26-1.089-2.132-1.538-2.846-.943.179-.996-2.044-2.281-2.838-1.159.253-1.244-2.516-2.235-3.218-1.112-.132-.736-.989-1.235-1.756-1.253ZM15.44 6.35c.127.153.406.303.733.374.326.071.69.062.895.008l.489-.126.133.489c.121.448.375.62.79.709.415.09.971.019 1.413-.157l.567-.228.124.598c.054.268.404.607.893.783.49.176 1.048.15 1.287 0l.617-.384.152.71c.067.315.248.533.528.69.28.156.66.23 1.043.184l.123 1.015c-.582.07-1.17-.03-1.665-.307a2.123 2.123 0 0 1-.806-.812c-.527.13-1.103.054-1.624-.134-.535-.192-1.053-.521-1.345-1.01a3.331 3.331 0 0 1-1.523.05 2.07 2.07 0 0 1-1.384-1.014 3.21 3.21 0 0 1-.924-.066c-.477-.104-.961-.31-1.303-.72l.786-.653Zm10.337 6.352.005.019c.09-.021.107-.017.2.06.094.075.227.252.34.51.222.505.378 1.293.419 2.106v.875c-.028.557-.107 1.087-.236 1.506-.095.31-.218.557-.336.707a.577.577 0 0 1-.22.188L4.059 23.81v-7.004c7.252-1.887 14.492-3.43 21.72-4.103Zm-3.951 9.685-1.446.167.797 1.166 1.365-.243-.716-1.09Zm-3.433 1.368-1.75.286.61.707 1.196.09-.056-1.082Zm-8.6 1.614-.089.815 1.229.16.461-.837-1.601-.138Zm5.874.258-1.33.172.096.884 1.733-.15-.5-.906ZM4.3 18.148c-.018.182.006.413.07.691.034.145.077.27.13.372.212-.007.36-.02.444-.039a.92.92 0 0 0 .424-.206l.03-.339c.045-.044.268-.119.669-.224.095.522.207 1.061.335 1.618.1.436.2.765.299.99a1.17 1.17 0 0 0-.135.05.745.745 0 0 0-.2.103c-.016.038 0 .161.048.371.037.162.076.263.115.305.09.098.35.098.777 0 .424-.099.655-.212.693-.34.018-.054.008-.16-.028-.318-.05-.214-.09-.334-.122-.36a.748.748 0 0 0-.224-.006c-.076.005-.124.01-.144.014a5.894 5.894 0 0 0-.165-1.02 35.292 35.292 0 0 0-.408-1.601c.406-.081.64-.112.7-.092l.175.291a.92.92 0 0 0 .471 0 2.63 2.63 0 0 0 .416-.16 1.568 1.568 0 0 0-.046-.39 2.236 2.236 0 0 0-.24-.653l-.513.093a26.664 26.664 0 0 0-2.345.503c-.248.066-.495.136-.742.21l-.484.137Zm5.414 2.147c-.031.16-.04.273-.024.337.031.137.062.234.092.291a.611.611 0 0 0 .145.158c.156.032.414.028.775-.013.36-.037.735-.1 1.122-.19.795-.183 1.324-.396 1.586-.64a2.635 2.635 0 0 0-.047-.48.764.764 0 0 0-.246-.433 1.096 1.096 0 0 0-.263.022c-.133.031-.285.136-.456.316l.064.195a1.14 1.14 0 0 1-.278.148 2.67 2.67 0 0 1-.35.112c-.13.03-.296.054-.5.071-.205.013-.347 0-.424-.042a10.4 10.4 0 0 0-.163-1.008l.604-.171a.302.302 0 0 0 .097.169c.03.022.124.015.282-.021.157-.036.249-.072.274-.108.066-.104.072-.27.02-.495-.058-.25-.142-.433-.254-.547-.071-.014-.191 0-.36.038-.11.026-.174.051-.193.077a.36.36 0 0 0-.017.176.188.188 0 0 0 .019.053c-.002.013-.2.065-.595.156.021-.145-.01-.397-.092-.756a3.292 3.292 0 0 0-.098-.315c0-.013.095-.048.282-.104.187-.056.34-.097.461-.125.343-.08.56-.102.648-.067l.028.204c.232.087.413.115.542.085a1.17 1.17 0 0 0 .252-.096.763.763 0 0 0 .032-.498 2.626 2.626 0 0 0-.168-.452c-.488-.05-1.102.012-1.845.183a9.675 9.675 0 0 0-.98.284c-.335.111-.56.212-.675.302a.545.545 0 0 0-.043.342c.04.169.096.288.172.355a.3.3 0 0 0 .179.003c.056-.013.129-.04.217-.081-.004.37.057.828.183 1.372.085.371.194.73.325 1.079a.224.224 0 0 0-.1.004.549.549 0 0 0-.23.11Zm4.225-.841a.906.906 0 0 0-.06.542.58.58 0 0 0 .083.192c.235.04.485.028.751-.033a1.03 1.03 0 0 0 .384-.16c.102-.218.136-.407.1-.564a1.115 1.115 0 0 0-.062-.183c-.034-.018-.083-.02-.148-.004a.565.565 0 0 0-.095.028c.084-.079.208-.258.373-.539.164-.28.29-.509.377-.686.53.418.937.676 1.224.776a.622.622 0 0 0-.26.117.54.54 0 0 0 .01.234c.03.129.094.26.193.395.18.026.373.016.579-.032.258-.06.497-.164.718-.312.03-.033.037-.09.018-.17a.89.89 0 0 0-.14-.3c-.07-.102-.135-.166-.196-.19l-.079.018-.115.027-.053.018c-.03-.133-.21-.331-.539-.595-.328-.264-.592-.43-.79-.5.152-.167.323-.44.511-.82.192-.383.273-.65.242-.8a1.36 1.36 0 0 0 .283-.047.564.564 0 0 0 .037-.416.73.73 0 0 0-.1-.239 1.538 1.538 0 0 0-.658.018 2.413 2.413 0 0 0-.494.178.5.5 0 0 0-.103.438c.017.073.051.15.104.231.018.022.061.024.13.009a.379.379 0 0 0 .106-.038 4.247 4.247 0 0 0-.407.585c-.17.277-.3.503-.392.677a5.697 5.697 0 0 0-.687-.517c-.262-.178-.432-.272-.511-.284a.76.76 0 0 0 .111-.013.228.228 0 0 0 .102-.055.323.323 0 0 0 .01-.206.59.59 0 0 0-.137-.262c-.066-.082-.14-.127-.222-.133a1.06 1.06 0 0 0-.382.03 2.176 2.176 0 0 0-.722.295.953.953 0 0 0 .028.23c.052.225.142.378.271.459.138-.032.23-.062.28-.09.039.152.216.35.531.591.318.237.584.394.797.473-.151.154-.317.42-.498.797-.18.377-.254.636-.222.777-.09.013-.184.03-.28.053Zm3.644-4.373c-.018.183.006.413.07.692.034.145.077.269.13.371.212-.006.36-.02.444-.039a.92.92 0 0 0 .424-.206l.03-.338c.045-.045.268-.12.669-.225.095.522.207 1.062.335 1.618.1.436.2.766.299.99a.863.863 0 0 0-.135.05.746.746 0 0 0-.2.103c-.016.038 0 .162.048.372.037.16.076.263.115.304.09.099.35.098.777 0 .424-.098.655-.211.693-.339.017-.055.008-.161-.028-.318-.05-.214-.09-.334-.122-.361a.744.744 0 0 0-.224-.006c-.076.005-.123.01-.144.014a5.894 5.894 0 0 0-.165-1.02 35.308 35.308 0 0 0-.408-1.6c.406-.082.64-.112.7-.092l.175.29a.92.92 0 0 0 .471 0 2.63 2.63 0 0 0 .416-.16 1.57 1.57 0 0 0-.046-.39 2.237 2.237 0 0 0-.24-.653l-.513.094a26.278 26.278 0 0 0-2.345.502c-.248.066-.495.136-.742.21l-.484.137Zm4.811-.932c-.206.175-.332.32-.377.438.076.182.173.342.29.48.073-.033.15-.083.233-.149.044.08.218.237.523.473.308.23.602.396.88.498.03.077.07.198.115.362.046.16.093.337.143.534.054.196.086.316.096.36a.822.822 0 0 0-.334.154c-.025.04-.02.132.013.277.037.162.068.26.094.297.021.02.052.035.092.043a.717.717 0 0 0 .175-.015 4.52 4.52 0 0 0 .22-.044 7.09 7.09 0 0 0 .316-.067c.448-.103.681-.177.701-.22.006-.03.007-.1.002-.21a1.505 1.505 0 0 0-.032-.28c-.016-.068-.034-.109-.054-.121a.665.665 0 0 0-.328-.014 9.922 9.922 0 0 0-.117-.616 5.332 5.332 0 0 1-.104-.671c.103-.109.196-.22.28-.332.085-.113.156-.228.215-.343a3.52 3.52 0 0 0 .253-.588l.082-.223c.103.023.195.034.275.032.047-.091.064-.277.05-.559-.474-.303-.945-.4-1.413-.292a1.265 1.265 0 0 0-.072.265 1.54 1.54 0 0 0-.048.292c.009.019.067.04.174.062a.479.479 0 0 0 .2.01c-.008.096-.084.315-.23.66-.147.34-.264.551-.35.635a15.847 15.847 0 0 1-.694-.49c-.262-.199-.415-.334-.457-.405a.445.445 0 0 0 .175-.098c.09-.071.133-.117.128-.137-.02-.085-.137-.232-.35-.442-.3.12-.555.268-.765.444Z" clip-rule="evenodd"/>
  </g>
  <defs>
    <clipPath id="a">
      <path fill="#fff" d="M0 0h32v32H0z"/>
    </clipPath>
    <clipPath id="b">
      <path fill="#fff" d="M0 0h32v32H0z"/>
    </clipPath>
  </defs>
</svg>
