<svg xmlns="http://www.w3.org/2000/svg" width="32" height="32" fill="none" viewBox="0 0 32 32">
  <path fill="#1E1E1E" d="M16.002 4.182c-.675-.016-1.28.338-1.261 1.229L3.02 14.93l.015.38v9.788l.627-.147 8.526-2 .297.968 1.626-.183-.187-1.193 3.79-.888.484.56 1.195.089-.051-1.03 6.668-1.566v.002c.075-.011.146-.029.216-.052l.003-.001 1.138-.267.395-.092v-.393l1.013-8.062c.486-.935-.355-2.54-2.117-2.194.26-1.089-2.132-1.538-2.846-.943.179-.996-2.044-2.281-2.838-1.159.253-1.244-2.516-2.235-3.218-1.112-.132-.736-.989-1.235-1.756-1.253ZM15.44 6.35c.127.153.406.303.733.374.326.071.69.062.895.008l.489-.126.133.489c.121.448.375.62.79.709.415.09.971.019 1.413-.157l.567-.228.124.598c.054.268.404.607.893.783.49.176 1.048.15 1.287 0l.617-.384.152.71c.067.315.248.533.528.69.28.156.66.23 1.043.184l.123 1.015c-.582.07-1.17-.03-1.665-.307a2.123 2.123 0 0 1-.806-.812c-.527.13-1.103.054-1.624-.134-.535-.192-1.053-.521-1.345-1.01a3.331 3.331 0 0 1-1.523.05 2.07 2.07 0 0 1-1.384-1.014 3.21 3.21 0 0 1-.924-.066c-.477-.104-.961-.31-1.303-.72l.786-.653Zm10.337 6.352.005.019c.09-.021.107-.017.2.06.094.075.227.252.34.51.222.505.378 1.293.419 2.106v.875c-.027.557-.107 1.087-.236 1.506-.095.31-.218.557-.336.707a.577.577 0 0 1-.22.188L4.059 23.81v-7.004c7.252-1.887 14.492-3.43 21.72-4.103h-.001Zm-3.951 9.685-1.446.167.797 1.166 1.365-.243-.716-1.09Zm-3.433 1.368-1.75.286.61.707 1.196.09-.056-1.082Zm-8.6 1.614-.089.815 1.229.16.461-.837-1.601-.138Zm5.874.258-1.33.172.096.884 1.733-.15-.5-.906Z"/>
  <path fill="#1E1E1E" d="M4.37 18.84a2.237 2.237 0 0 1-.07-.692l.484-.137a24.155 24.155 0 0 1 2.298-.569c.26-.052.523-.1.789-.144.269-.05.44-.08.513-.093.096.156.176.374.24.652.034.145.049.276.046.391a2.63 2.63 0 0 1-.416.16.92.92 0 0 1-.471 0l-.176-.29c-.06-.02-.293.01-.699.09.143.512.28 1.045.408 1.602.1.436.156.776.165 1.02a.999.999 0 0 1 .144-.014.743.743 0 0 1 .224.006c.032.026.072.146.122.36.036.158.046.264.028.319-.038.127-.269.24-.693.338-.427.099-.686.1-.777.001-.04-.042-.078-.143-.115-.305-.048-.21-.064-.333-.048-.371a.745.745 0 0 1 .2-.104 1.17 1.17 0 0 1 .135-.05c-.099-.224-.198-.553-.299-.99a35.295 35.295 0 0 1-.335-1.617c-.4.105-.624.18-.669.224l-.03.339a.92.92 0 0 1-.424.206 2.63 2.63 0 0 1-.443.039 1.57 1.57 0 0 1-.13-.372Zm5.32 1.792c-.015-.064-.007-.177.024-.337a.549.549 0 0 1 .23-.11c.04-.01.073-.01.1-.004a8.413 8.413 0 0 1-.325-1.079c-.126-.544-.187-1.002-.183-1.372-.088.041-.16.068-.217.081a.3.3 0 0 1-.18-.003c-.075-.067-.132-.186-.17-.355a.545.545 0 0 1 .042-.342c.115-.09.34-.19.675-.302.335-.116.662-.21.98-.284.743-.171 1.357-.232 1.845-.183.087.192.143.343.168.452a.764.764 0 0 1-.032.498 1.17 1.17 0 0 1-.252.096c-.129.03-.31.002-.542-.085l-.028-.204c-.089-.035-.305-.012-.647.067-.122.028-.276.07-.462.125-.187.056-.281.09-.282.104.05.141.082.246.098.315.083.359.113.611.092.756.395-.091.593-.143.595-.156a.188.188 0 0 1-.02-.053.361.361 0 0 1 .018-.176c.02-.026.083-.051.192-.076.17-.04.29-.053.361-.04.112.115.196.298.254.548.052.226.046.39-.02.495-.025.036-.117.072-.274.108-.158.036-.252.043-.282.02a.301.301 0 0 1-.097-.168l-.604.17c.055.239.11.575.163 1.009.077.041.219.055.424.042.204-.017.37-.04.5-.07.096-.023.213-.06.35-.113.14-.058.232-.107.278-.148l-.064-.195c.17-.18.323-.285.456-.316a1.08 1.08 0 0 1 .263-.022c.12.1.202.244.246.434.025.109.041.269.047.48-.262.243-.79.456-1.586.64-.387.09-.761.152-1.122.189-.36.04-.619.045-.775.013a.611.611 0 0 1-.145-.158 1.314 1.314 0 0 1-.092-.29Zm4.19-.636a.905.905 0 0 1 .06-.542c.096-.023.19-.04.28-.053-.032-.14.042-.4.222-.777.181-.378.347-.643.498-.797-.213-.079-.479-.236-.797-.473-.315-.241-.492-.438-.532-.59a1.148 1.148 0 0 1-.279.089c-.129-.08-.22-.234-.271-.46a.953.953 0 0 1-.028-.23c.195-.13.436-.228.723-.294a1.06 1.06 0 0 1 .381-.03c.082.006.156.05.222.133a.59.59 0 0 1 .137.262c.019.08.016.15-.01.206a.228.228 0 0 1-.102.055.76.76 0 0 1-.111.013c.079.012.25.106.511.284.265.172.494.345.687.517.092-.174.222-.4.392-.677.173-.282.308-.477.407-.585a.379.379 0 0 1-.106.038c-.069.015-.112.013-.13-.009a.734.734 0 0 1-.104-.23.5.5 0 0 1 .103-.439 2.47 2.47 0 0 1 .494-.178c.234-.054.454-.06.659-.018.046.07.079.15.1.239.038.165.025.304-.038.416-.146.034-.24.05-.283.046.03.15-.05.418-.242.802-.188.38-.36.652-.512.82.199.068.463.235.791.499.329.264.509.462.54.595l.052-.018.115-.027.079-.018c.06.024.126.088.197.19a.89.89 0 0 1 .14.3c.018.08.012.137-.019.17a2.15 2.15 0 0 1-.718.312 1.56 1.56 0 0 1-.58.032 1.085 1.085 0 0 1-.193-.395.54.54 0 0 1-.009-.234.622.622 0 0 1 .26-.117c-.287-.1-.695-.358-1.224-.776a11.26 11.26 0 0 1-.377.686c-.165.28-.29.46-.373.539a.565.565 0 0 1 .095-.028c.065-.015.114-.014.148.004.028.066.048.127.061.183.037.157.003.346-.099.565a1.03 1.03 0 0 1-.384.159 1.91 1.91 0 0 1-.75.033.578.578 0 0 1-.083-.192Zm3.773-4.223a2.235 2.235 0 0 1-.07-.692l.484-.137a23.844 23.844 0 0 1 2.298-.569c.26-.051.523-.1.789-.143l.514-.094c.095.157.175.374.24.652.033.146.048.276.045.392-.192.086-.331.14-.416.16a.92.92 0 0 1-.471 0l-.176-.291c-.06-.02-.293.01-.699.091.143.51.28 1.045.408 1.601.1.436.156.776.165 1.02.02-.004.068-.01.144-.014a.744.744 0 0 1 .224.006c.032.027.072.147.122.36.036.158.045.264.028.319-.038.128-.269.24-.693.338-.427.1-.686.1-.777.002-.04-.042-.078-.144-.115-.305-.049-.21-.064-.334-.047-.372a.743.743 0 0 1 .199-.103.863.863 0 0 1 .135-.05c-.099-.224-.198-.554-.299-.99a35.349 35.349 0 0 1-.335-1.618c-.4.105-.624.18-.669.225l-.03.338a.92.92 0 0 1-.424.206 2.53 2.53 0 0 1-.444.039 1.572 1.572 0 0 1-.13-.371Zm4.364-1.186c.045-.117.171-.263.377-.438.21-.176.465-.324.764-.444.215.21.331.357.351.442.005.02-.038.066-.128.137a.445.445 0 0 1-.175.098c.042.071.195.206.457.405.267.197.498.36.693.49.087-.084.204-.296.35-.636.147-.344.223-.563.231-.658a.479.479 0 0 1-.2-.011c-.107-.023-.165-.043-.174-.062-.003-.034.013-.13.048-.292.035-.16.059-.25.072-.265.468-.108.94-.01 1.413.292.014.282-.003.468-.05.56a1.17 1.17 0 0 1-.275-.033l-.082.223a3.52 3.52 0 0 1-.253.588c-.059.115-.13.23-.214.342a3.798 3.798 0 0 1-.28.333c0 .097.035.321.103.67.072.35.111.555.117.617a.671.671 0 0 1 .328.014c.02.012.038.053.054.122.018.076.029.17.033.279.004.11.003.18-.003.21-.02.043-.253.117-.701.22a5.72 5.72 0 0 1-.316.067 4.52 4.52 0 0 1-.22.044.717.717 0 0 1-.175.015.183.183 0 0 1-.092-.043c-.026-.036-.057-.135-.094-.297-.034-.145-.038-.237-.013-.277a.822.822 0 0 1 .334-.154c-.01-.044-.042-.164-.096-.36a18.98 18.98 0 0 0-.143-.534 4.184 4.184 0 0 0-.115-.363 3.495 3.495 0 0 1-.88-.498c-.305-.235-.48-.392-.523-.472a1.19 1.19 0 0 1-.233.15 1.837 1.837 0 0 1-.29-.481Z"/>
</svg>
