<svg xmlns="http://www.w3.org/2000/svg" width="32" height="32" fill="none" viewBox="0 0 32 32">
  <g clip-path="url(#a)">
    <g clip-path="url(#b)">
      <path fill="#1E1E1E" d="M16 0C3.2 0 0 3.2 0 16s3.2 16 16 16 16-3.2 16-16S28.8 0 16 0Z"/>
    </g>
    <path fill="#D9D9D9" fill-rule="evenodd" d="M16 0C3.2 0 0 3.2 0 16s3.2 16 16 16 16-3.2 16-16S28.8 0 16 0Zm.002 4.331c-.699-.017-1.326.35-1.306 1.273l-12.14 9.859.017.393v10.138l.65-.152 8.83-2.07.308 1.001 1.683-.19-.193-1.234 3.926-.921.501.58 1.237.093-.053-1.068 6.907-1.621v.002c.077-.012.15-.03.223-.053l.001-.001.002-.001 1.179-.276.409-.096v-.407l1.05-8.35c.503-.969-.368-2.63-2.194-2.272.27-1.128-2.208-1.594-2.947-.977.185-1.03-2.117-2.363-2.94-1.2.263-1.289-2.605-2.315-3.333-1.152-.136-.762-1.023-1.279-1.817-1.298Zm-.583 2.246c.133.16.422.314.76.388.338.074.715.064.927.009l.507-.131.138.506c.125.465.388.642.817.735.43.093 1.007.019 1.464-.163l.588-.236.127.62c.057.277.419.628.926.81.507.183 1.085.155 1.333 0l.639-.398.157.737c.07.325.257.55.547.713.29.162.684.239 1.08.191l.127 1.051a2.845 2.845 0 0 1-1.724-.318 2.197 2.197 0 0 1-.835-.84c-.546.135-1.142.055-1.682-.14-.554-.198-1.09-.54-1.393-1.045a3.45 3.45 0 0 1-1.577.051 2.144 2.144 0 0 1-1.433-1.05A3.334 3.334 0 0 1 15.954 8c-.493-.108-.995-.32-1.349-.746l.814-.676Zm10.707 6.58.006.019c.092-.022.11-.017.207.062.097.079.234.261.352.53.23.521.391 1.337.434 2.18v.906c-.029.577-.111 1.126-.245 1.56-.098.32-.225.577-.348.732a.6.6 0 0 1-.227.195L3.631 24.66v-7.254c7.512-1.954 15.01-3.552 22.495-4.25Zm-4.092 10.03-1.497.174.824 1.207 1.415-.252-.742-1.129Zm-3.556 1.418-1.813.296.632.733 1.24.091-.059-1.12Zm-8.907 1.67-.092.845 1.273.167.478-.868-1.659-.143Zm6.084.268-1.377.179.099.915 1.795-.156-.517-.938ZM4.3 19.148c-.018.182.006.413.07.691.034.145.077.27.13.372.212-.007.36-.02.444-.039a.92.92 0 0 0 .424-.206l.03-.339c.045-.044.268-.119.669-.224.095.522.207 1.061.335 1.618.1.436.2.765.299.99a1.17 1.17 0 0 0-.135.05.745.745 0 0 0-.2.103c-.016.038 0 .161.048.371.037.162.076.263.115.305.09.098.35.098.777 0 .424-.099.655-.212.693-.34.018-.054.008-.16-.028-.318-.05-.214-.09-.334-.122-.36a.748.748 0 0 0-.224-.006c-.076.005-.124.01-.144.014a5.894 5.894 0 0 0-.165-1.02 35.292 35.292 0 0 0-.408-1.601c.406-.081.64-.112.7-.092l.175.291a.92.92 0 0 0 .471 0 2.63 2.63 0 0 0 .416-.16 1.568 1.568 0 0 0-.046-.39 2.236 2.236 0 0 0-.24-.653l-.513.093a26.664 26.664 0 0 0-2.345.503c-.248.066-.495.136-.742.21l-.484.137Zm5.414 2.147c-.031.16-.04.273-.024.337.031.137.062.234.092.291a.611.611 0 0 0 .145.158c.156.032.414.028.775-.013.36-.037.735-.1 1.122-.19.795-.183 1.324-.396 1.586-.64a2.635 2.635 0 0 0-.047-.48.764.764 0 0 0-.246-.433 1.096 1.096 0 0 0-.263.022c-.133.031-.285.136-.456.316l.064.195a1.14 1.14 0 0 1-.278.148 2.67 2.67 0 0 1-.35.112c-.13.03-.296.054-.5.071-.205.013-.347 0-.424-.042a10.4 10.4 0 0 0-.163-1.008l.604-.171a.302.302 0 0 0 .097.169c.03.022.124.015.282-.021.157-.036.249-.072.274-.108.066-.104.072-.27.02-.495-.058-.25-.142-.433-.254-.547-.071-.014-.191 0-.36.038-.11.026-.174.051-.193.077a.36.36 0 0 0-.017.176.188.188 0 0 0 .019.053c-.002.013-.2.065-.595.156.021-.145-.01-.397-.092-.756a3.292 3.292 0 0 0-.098-.315c0-.013.095-.048.282-.104.187-.056.34-.097.461-.125.343-.08.56-.102.648-.067l.028.204c.232.087.413.115.542.085a1.17 1.17 0 0 0 .252-.096.763.763 0 0 0 .032-.498 2.626 2.626 0 0 0-.168-.452c-.488-.05-1.102.012-1.845.183a9.675 9.675 0 0 0-.98.284c-.335.111-.56.212-.675.302a.545.545 0 0 0-.043.342c.04.169.096.288.172.355a.3.3 0 0 0 .179.003c.056-.013.129-.04.217-.081-.004.37.057.828.183 1.372.085.371.194.73.325 1.079a.224.224 0 0 0-.1.004.549.549 0 0 0-.23.11Zm4.225-.841a.906.906 0 0 0-.06.542.58.58 0 0 0 .083.192c.235.04.485.028.751-.033a1.03 1.03 0 0 0 .384-.16c.102-.218.136-.407.1-.564a1.115 1.115 0 0 0-.062-.183c-.034-.018-.083-.02-.148-.004a.565.565 0 0 0-.095.028c.084-.079.208-.258.373-.539.164-.28.29-.509.377-.686.53.418.937.676 1.224.776a.622.622 0 0 0-.26.117.54.54 0 0 0 .01.234c.03.129.094.26.193.395.18.026.373.016.579-.032.258-.06.497-.164.718-.312.03-.033.037-.09.018-.17a.89.89 0 0 0-.14-.3c-.07-.102-.135-.166-.196-.19l-.079.018-.115.027-.053.018c-.03-.133-.21-.331-.539-.595-.328-.264-.592-.43-.79-.5.152-.167.323-.44.511-.82.192-.383.273-.65.242-.8a1.36 1.36 0 0 0 .283-.047.564.564 0 0 0 .037-.416.73.73 0 0 0-.1-.239 1.538 1.538 0 0 0-.658.019 2.413 2.413 0 0 0-.494.177.5.5 0 0 0-.103.438c.017.073.051.15.104.231.018.022.061.024.13.009a.379.379 0 0 0 .106-.038 4.247 4.247 0 0 0-.407.585c-.17.277-.3.503-.392.677a5.697 5.697 0 0 0-.687-.517c-.262-.178-.432-.272-.511-.284a.76.76 0 0 0 .111-.013.228.228 0 0 0 .102-.055.323.323 0 0 0 .01-.206.59.59 0 0 0-.137-.262c-.066-.082-.14-.127-.222-.133a1.06 1.06 0 0 0-.382.03 2.176 2.176 0 0 0-.722.295.953.953 0 0 0 .028.23c.052.225.142.378.271.459.138-.032.23-.062.28-.09.039.152.216.35.531.591.318.237.584.394.797.473-.151.154-.317.42-.498.797-.18.377-.254.636-.222.777-.09.013-.184.03-.28.053Zm3.644-4.373c-.018.183.006.413.07.692.034.145.077.269.13.371.212-.006.36-.02.444-.039a.92.92 0 0 0 .424-.206l.03-.338c.045-.045.268-.12.669-.225.095.522.207 1.062.335 1.618.1.436.2.766.299.99a.863.863 0 0 0-.135.05.746.746 0 0 0-.2.103c-.016.038 0 .162.048.372.037.16.076.263.115.304.09.099.35.098.777 0 .424-.098.655-.211.693-.339.017-.055.008-.161-.028-.318-.05-.214-.09-.334-.122-.361a.744.744 0 0 0-.224-.006c-.076.005-.123.01-.144.014a5.894 5.894 0 0 0-.165-1.02 35.308 35.308 0 0 0-.408-1.6c.406-.082.64-.112.7-.092l.175.29a.92.92 0 0 0 .471 0 2.63 2.63 0 0 0 .416-.16 1.57 1.57 0 0 0-.046-.39 2.237 2.237 0 0 0-.24-.653l-.513.094a26.278 26.278 0 0 0-2.345.502c-.248.066-.495.136-.742.21l-.484.137Zm4.811-.932c-.206.175-.332.32-.377.438.076.182.173.342.29.48.073-.033.15-.083.233-.149.044.08.218.237.523.473.308.23.602.396.88.498.03.077.07.198.115.362.046.16.093.337.143.534.054.196.086.316.096.36a.822.822 0 0 0-.334.154c-.025.04-.02.132.013.277.037.162.068.26.094.297.021.02.052.035.092.043a.717.717 0 0 0 .175-.015 4.52 4.52 0 0 0 .22-.044 7.09 7.09 0 0 0 .316-.067c.448-.103.681-.177.701-.22.006-.03.007-.1.002-.21a1.505 1.505 0 0 0-.032-.28c-.016-.068-.034-.109-.054-.121a.665.665 0 0 0-.328-.014 9.922 9.922 0 0 0-.117-.616 5.332 5.332 0 0 1-.104-.671c.103-.109.196-.22.28-.332.085-.113.156-.228.215-.343a3.52 3.52 0 0 0 .253-.588l.082-.223c.103.023.195.034.275.032.047-.091.064-.277.05-.559-.474-.303-.945-.4-1.413-.292a1.265 1.265 0 0 0-.072.265 1.54 1.54 0 0 0-.048.292c.009.019.067.04.174.062a.479.479 0 0 0 .2.01c-.008.096-.084.315-.23.66-.147.34-.264.551-.35.635a15.847 15.847 0 0 1-.694-.49c-.262-.199-.415-.334-.457-.405a.445.445 0 0 0 .175-.098c.09-.071.133-.117.128-.137-.02-.085-.137-.232-.35-.442-.3.12-.555.268-.765.444Z" clip-rule="evenodd"/>
  </g>
  <defs>
    <clipPath id="a">
      <path fill="#fff" d="M0 0h32v32H0z"/>
    </clipPath>
    <clipPath id="b">
      <path fill="#fff" d="M0 0h32v32H0z"/>
    </clipPath>
  </defs>
</svg>
